#N canvas 943 393 627 650 10;
#X declare -lib OSC -lib mrpeach;
#X obj 84 324 serialosc;
#X obj 84 482 unpack f f f;
#X floatatom 84 514 5 0 0 0 - - -;
#X floatatom 118 514 5 0 0 0 - - -;
#X floatatom 153 514 5 0 0 0 - - -;
#X obj 84 375 routeOSC /monome/grid/key;
#X text 94 532 x y state;
#X msg 126 221 /monome/grid/led/set \$1 \$2 \$3;
#X msg 84 62 /monome/grid/led/set 2 0 1;
#X msg 150 285 /monome/grid/led/all 0;
#X msg 126 110 1 1 1;
#X obj 193 153 tgl 15 0 empty empty empty 17 7 0 10 -262144 -1 -1 0
1;
#X msg 173 110 1 1 0;
#X msg 193 173 4 0 \$1;
#X text 32 599 http://monome.org;
#X text 262 60 a complete led message;
#X text 229 149 toggle an led;
#X text 316 219 add the OSC address;
#X text 302 284 clear the grid;
#X text 32 582 grid studies 2-2;
#X connect 0 0 5 0;
#X connect 1 0 2 0;
#X connect 1 1 3 0;
#X connect 1 2 4 0;
#X connect 5 0 1 0;
#X connect 7 0 0 0;
#X connect 8 0 0 0;
#X connect 9 0 0 0;
#X connect 10 0 7 0;
#X connect 11 0 13 0;
#X connect 12 0 7 0;
#X connect 13 0 7 0;
