#N canvas 943 393 627 650 10;
#X declare -lib OSC -lib mrpeach;
#X obj 84 324 serialosc;
#X obj 84 482 unpack f f f;
#X floatatom 84 514 5 0 0 0 - - -;
#X floatatom 118 514 5 0 0 0 - - -;
#X floatatom 153 514 5 0 0 0 - - -;
#X obj 84 375 routeOSC /monome/grid/key;
#X text 94 532 x y state;
#X text 32 599 http://monome.org;
#X text 32 582 grid studies 2-1;
#X connect 0 0 5 0;
#X connect 1 0 2 0;
#X connect 1 1 3 0;
#X connect 1 2 4 0;
#X connect 5 0 1 0;
