#N canvas 885 304 627 650 10;
#X obj 84 482 unpack f f f;
#X floatatom 84 514 5 0 0 0 - - - 0;
#X floatatom 118 514 5 0 0 0 - - - 0;
#X floatatom 153 514 5 0 0 0 - - - 0;
#X obj 84 375 routeOSC /monome/grid/key;
#X text 94 532 x y state;
#X text 32 599 http://monome.org;
#X text 32 582 grid studies 2-1;
#X obj 84 324 monome-device;
#X obj 113 411 print;
#X connect 0 0 1 0;
#X connect 0 1 2 0;
#X connect 0 2 3 0;
#X connect 4 0 0 0;
#X connect 4 0 9 0;
#X connect 8 0 4 0;
