#N canvas 199 139 1209 663 10;
#X obj 390 233 outlet OSC-from-serialosc;
#X obj 251 456 inlet OSC-to-serialosc;
#X obj 260 7 loadbang;
#X msg 388 78 \$0;
#X obj 387 108 + 12289;
#X obj 82 391 packOSC;
#X text 81 185 bang for 'rescan';
#X text 139 20 bang for init;
#X text 694 388 this connects;
#X obj 585 232 routeOSC /serialosc/device /serialosc/remove /serialosc/add;
#X obj 584 277 spigot 0;
#X text 688 340 this auto-connects to first device in list;
#X obj 454 563 packOSC;
#X obj 386 183 unpackOSC;
#X obj 386 205 pipelist;
#X obj 224 20 bng 15 250 50 0 empty empty empty 17 7 0 10 #fcfcfc #000000 #000000;
#X obj 721 258 t b;
#X obj 579 312 unpack s s f;
#X obj 585 430 float;
#X msg 556 461 send /sys/port \$1;
#X msg 24 344 send /serialosc/notify localhost \$1;
#X msg 84 307 send /serialosc/list localhost \$1;
#X obj 25 305 float;
#X obj 85 280 float;
#X msg 137 391 connect localhost 12002;
#X msg 672 537 connect localhost \$1;
#X obj 622 388 t b b b f b;
#X msg 711 512 disconnect;
#X obj 262 39 t b b b b 1;
#X obj 64 215 t b b b b;
#X msg 125 244 1;
#X obj 649 341 t f b;
#X msg 697 297 0;
#X msg 406 434 send /sys/prefix \$1;
#X obj 410 279 inlet prefix;
#X obj 410 309 prepend set;
#X msg 417 359 /monome;
#X obj 403 395 prepend symbol;
#X obj 373 303 t b;
#X obj 251 507 list prepend send;
#X obj 251 529 list trim;
#X obj 822 495 outlet bang-on-connect;
#X msg 387 136 listen \$1;
#X obj 387 160 netreceive -u -b -f \$1;
#X obj 454 589 netsend -u -b;
#X obj 80 423 netsend -u -b;
#X obj 64 187 bng 15 250 50 0 empty empty empty 17 7 0 10 #fcfcfc #000000 #000000;
#X text 14 625 updated Sept 2023 by David Niemi for monome.org;
#X connect 1 0 39 0;
#X connect 2 0 28 0;
#X connect 3 0 4 0;
#X connect 4 0 42 0;
#X connect 4 0 22 1;
#X connect 4 0 23 1;
#X connect 4 0 18 1;
#X connect 5 0 45 0;
#X connect 9 0 10 0;
#X connect 9 1 16 0;
#X connect 9 2 16 0;
#X connect 10 0 17 0;
#X connect 12 0 44 0;
#X connect 13 0 14 0;
#X connect 14 0 9 0;
#X connect 14 0 0 0;
#X connect 15 0 28 0;
#X connect 16 0 29 0;
#X connect 17 2 31 0;
#X connect 18 0 19 0;
#X connect 19 0 12 0;
#X connect 20 0 5 0;
#X connect 21 0 5 0;
#X connect 22 0 20 0;
#X connect 23 0 21 0;
#X connect 24 0 45 0;
#X connect 25 0 44 0;
#X connect 26 0 41 0;
#X connect 26 1 36 0;
#X connect 26 2 18 0;
#X connect 26 3 25 0;
#X connect 26 4 27 0;
#X connect 27 0 44 0;
#X connect 28 1 29 0;
#X connect 28 2 3 0;
#X connect 28 3 24 0;
#X connect 29 1 22 0;
#X connect 29 2 23 0;
#X connect 29 3 30 0;
#X connect 30 0 10 1;
#X connect 31 0 26 0;
#X connect 31 1 32 0;
#X connect 32 0 10 1;
#X connect 33 0 12 0;
#X connect 34 0 35 0;
#X connect 34 0 38 0;
#X connect 35 0 36 0;
#X connect 36 0 37 0;
#X connect 37 0 33 0;
#X connect 38 0 36 0;
#X connect 39 0 40 0;
#X connect 40 0 12 0;
#X connect 42 0 43 0;
#X connect 43 0 13 0;
#X connect 46 0 29 0;
