#N canvas 1153 142 1209 663 10;
#X declare -lib OSC -lib mrpeach;
#X obj 80 423 udpsend localhost 12002;
#X obj 454 589 udpsend localhost 0;
#X obj 387 160 udpreceive 12289;
#X obj 390 233 outlet OSC-from-serialosc;
#X obj 251 456 inlet OSC-to-serialosc;
#X msg 387 136 port \$1;
#X obj 260 7 loadbang;
#X msg 388 78 \$0;
#X obj 387 108 + 12289;
#X obj 82 391 packOSC;
#X text 39 186 bang for 'rescan';
#X text 327 37 bang for init;
#X text 691 392 this connects;
#X obj 585 232 routeOSC /serialosc/device /serialosc/remove /serialosc/add
;
#X obj 584 277 spigot 0;
#X text 688 340 this auto-connects to first device in list;
#X obj 454 563 packOSC;
#X obj 386 183 unpackOSC;
#X obj 386 205 pipelist;
#X obj 224 20 bng 15 250 50 0 empty empty empty 17 7 0 10 -262144 -1
-1;
#X obj 721 258 t b;
#X obj 579 312 unpack s s f;
#X obj 585 430 float;
#X msg 556 461 send /sys/port \$1;
#X msg 24 344 send /serialosc/notify localhost \$1;
#X msg 84 307 send /serialosc/list localhost \$1;
#X obj 25 305 float;
#X obj 85 280 float;
#X msg 137 391 connect localhost 12002;
#X msg 672 537 connect localhost \$1;
#X obj 622 388 t b b b f b;
#X msg 711 512 disconnect;
#X obj 262 39 t b b b b 1;
#X obj 64 215 t b b b b;
#X msg 125 244 1;
#X obj 649 341 t f b;
#X msg 697 297 0;
#X msg 406 434 send /sys/prefix \$1;
#X obj 410 279 inlet prefix;
#X obj 410 309 prepend set;
#X msg 417 359 /monome;
#X obj 403 395 prepend symbol;
#X obj 373 303 t b;
#X obj 251 507 list prepend send;
#X obj 251 529 list trim;
#X obj 822 495 outlet bang-on-connect;
#X obj 646 23 import OSC mrpeach;
#X text 765 22 import OSC & udp libraries for communication to serialosc
;
#X connect 2 0 17 0;
#X connect 4 0 43 0;
#X connect 5 0 2 0;
#X connect 6 0 32 0;
#X connect 7 0 8 0;
#X connect 8 0 5 0;
#X connect 8 0 26 1;
#X connect 8 0 27 1;
#X connect 8 0 22 1;
#X connect 9 0 0 0;
#X connect 13 0 14 0;
#X connect 13 1 20 0;
#X connect 13 2 20 0;
#X connect 14 0 21 0;
#X connect 16 0 1 0;
#X connect 17 0 18 0;
#X connect 18 0 13 0;
#X connect 18 0 3 0;
#X connect 19 0 32 0;
#X connect 20 0 33 0;
#X connect 21 2 35 0;
#X connect 22 0 23 0;
#X connect 23 0 16 0;
#X connect 24 0 9 0;
#X connect 25 0 9 0;
#X connect 26 0 24 0;
#X connect 27 0 25 0;
#X connect 28 0 0 0;
#X connect 29 0 1 0;
#X connect 30 0 45 0;
#X connect 30 1 40 0;
#X connect 30 2 22 0;
#X connect 30 3 29 0;
#X connect 30 4 31 0;
#X connect 31 0 1 0;
#X connect 32 1 33 0;
#X connect 32 2 7 0;
#X connect 32 3 28 0;
#X connect 33 1 26 0;
#X connect 33 2 27 0;
#X connect 33 3 34 0;
#X connect 34 0 14 1;
#X connect 35 0 30 0;
#X connect 35 1 36 0;
#X connect 36 0 14 1;
#X connect 37 0 16 0;
#X connect 38 0 39 0;
#X connect 38 0 42 0;
#X connect 39 0 40 0;
#X connect 40 0 41 0;
#X connect 41 0 37 0;
#X connect 42 0 40 0;
#X connect 43 0 44 0;
#X connect 44 0 16 0;
